HIERARCHY
ROOT hip
{
  OFFSET -107.001 80.2815 -20.2812
  CHANNELS 6 Xposition Yposition Zposition Zrotation Xrotation Yrotation
  JOINT abdomen
  {
    OFFSET 0 20.6881 -0.73152
    CHANNELS 3 Zrotation Xrotation Yrotation
    JOINT chest
    {
      OFFSET 0 11.7043 -0.48768
      CHANNELS 3 Zrotation Xrotation Yrotation
      JOINT neck
      {
        OFFSET 0 22.1894 -2.19456
        CHANNELS 3 Zrotation Xrotation Yrotation
        JOINT head
        {
          OFFSET -0.24384 7.07133 1.2192
          CHANNELS 3 Zrotation Xrotation Yrotation
          JOINT leftEye
          {
            OFFSET 4.14528 8.04674 8.04672
            CHANNELS 3 Zrotation Xrotation Yrotation
            End Site
            {
              OFFSET 1 0 0
            }
          }
          JOINT rightEye
          {
            OFFSET -3.6576 8.04674 8.04672
            CHANNELS 3 Zrotation Xrotation Yrotation
            End Site
            {
              OFFSET 1 0 0
            }
          }
        }
      }
      JOINT rCollar
      {
        OFFSET -2.68224 19.2634 -4.8768
        CHANNELS 3 Zrotation Xrotation Yrotation
        JOINT rShldr
        {
          OFFSET -8.77824 -1.95073 1.46304
          CHANNELS 3 Zrotation Xrotation Yrotation
          JOINT rForeArm
          {
            OFFSET -28.1742 -1.7115 0.48768
            CHANNELS 3 Zrotation Xrotation Yrotation
            JOINT rHand
            {
              OFFSET -22.5879 0.773209 7.07136
              CHANNELS 3 Zrotation Xrotation Yrotation
              JOINT rThumb1
              {
                OFFSET -1.2192 -0.487915 3.41376
                CHANNELS 3 Zrotation Xrotation Yrotation
                JOINT rThumb2
                {
                  OFFSET -3.37035 -0.52449 3.41376
                  CHANNELS 3 Zrotation Xrotation Yrotation
                  End Site
                  {
                    OFFSET -1.78271 -1.18214 1.43049
                  }
                }
              }
              JOINT rIndex1
              {
                OFFSET -7.75947 0.938293 5.60832
                CHANNELS 3 Zrotation Xrotation Yrotation
                JOINT rIndex2
                {
                  OFFSET -2.54057 -0.884171 1.56538
                  CHANNELS 3 Zrotation Xrotation Yrotation
                  End Site
                  {
                    OFFSET -1.62519 -0.234802 1.16502
                  }
                }
              }
              JOINT rMid1
              {
                OFFSET -8.24714 1.18213 3.41376
                CHANNELS 3 Zrotation Xrotation Yrotation
                JOINT rMid2
                {
                  OFFSET -3.10165 -0.590103 1.0647
                  CHANNELS 3 Zrotation Xrotation Yrotation
                  End Site
                  {
                    OFFSET -2.48547 -0.328903 0.83742
                  }
                }
              }
              JOINT rRing1
              {
                OFFSET -8.82822 0.546677 1.51678
                CHANNELS 3 Zrotation Xrotation Yrotation
                JOINT rRing2
                {
                  OFFSET -2.60934 -0.819778 -0.0198488
                  CHANNELS 3 Zrotation Xrotation Yrotation
                  End Site
                  {
                    OFFSET -2.33842 -0.294052 0.168128
                  }
                }
              }
              JOINT rPinky1
              {
                OFFSET -8.27202 -0.0477905 -0.4584
                CHANNELS 3 Zrotation Xrotation Yrotation
                JOINT rPinky2
                {
                  OFFSET -1.82734 -0.647385 -0.700984
                  CHANNELS 3 Zrotation Xrotation Yrotation
                  End Site
                  {
                    OFFSET -1.69225 -0.51767 -0.607171
                  }
                }
              }
            }
          }
        }
      }
      JOINT lCollar
      {
        OFFSET 2.68224 19.2634 -4.8768
        CHANNELS 3 Zrotation Xrotation Yrotation
        JOINT lShldr
        {
          OFFSET 8.77824 -1.95073 1.46304
          CHANNELS 3 Zrotation Xrotation Yrotation
          JOINT lForeArm
          {
            OFFSET 28.1742 -1.7115 0.48768
            CHANNELS 3 Zrotation Xrotation Yrotation
            JOINT lHand
            {
              OFFSET 22.5879 0.773209 7.07136
              CHANNELS 3 Zrotation Xrotation Yrotation
              JOINT lThumb1
              {
                OFFSET 1.2192 -0.487915 3.41376
                CHANNELS 3 Zrotation Xrotation Yrotation
                JOINT lThumb2
                {
                  OFFSET 3.37035 -0.52449 3.41376
                  CHANNELS 3 Zrotation Xrotation Yrotation
                  End Site
                  {
                    OFFSET 1.78271 -1.18214 1.43049
                  }
                }
              }
              JOINT lIndex1
              {
                OFFSET 7.75947 0.938293 5.60832
                CHANNELS 3 Zrotation Xrotation Yrotation
                JOINT lIndex2
                {
                  OFFSET 2.54057 -0.884171 1.56538
                  CHANNELS 3 Zrotation Xrotation Yrotation
                  End Site
                  {
                    OFFSET 1.62519 -0.234802 1.16502
                  }
                }
              }
              JOINT lMid1
              {
                OFFSET 8.24714 1.18213 3.41376
                CHANNELS 3 Zrotation Xrotation Yrotation
                JOINT lMid2
                {
                  OFFSET 3.10165 -0.590103 1.0647
                  CHANNELS 3 Zrotation Xrotation Yrotation
                  End Site
                  {
                    OFFSET 2.48547 -0.328903 0.83742
                  }
                }
              }
              JOINT lRing1
              {
                OFFSET 8.82822 0.546677 1.51678
                CHANNELS 3 Zrotation Xrotation Yrotation
                JOINT lRing2
                {
                  OFFSET 2.60934 -0.819778 -0.0198488
                  CHANNELS 3 Zrotation Xrotation Yrotation
                  End Site
                  {
                    OFFSET 2.33842 -0.294052 0.168128
                  }
                }
              }
              JOINT lPinky1
              {
                OFFSET 8.27202 -0.0477905 -0.4584
                CHANNELS 3 Zrotation Xrotation Yrotation
                JOINT lPinky2
                {
                  OFFSET 1.82734 -0.647385 -0.700984
                  CHANNELS 3 Zrotation Xrotation Yrotation
                  End Site
                  {
                    OFFSET 1.69225 -0.51767 -0.607171
                  }
                }
              }
            }
          }
        }
      }
    }
  }
  JOINT rButtock
  {
    OFFSET -8.77824 4.35084 1.2192
    CHANNELS 3 Zrotation Xrotation Yrotation
    JOINT rThigh
    {
      OFFSET 0 -1.70687 -2.19456
      CHANNELS 3 Zrotation Xrotation Yrotation
      JOINT rShin
      {
        OFFSET 0 -36.8199 0.73152
        CHANNELS 3 Zrotation Xrotation Yrotation
        JOINT rFoot
        {
          OFFSET 0.73152 -45.1104 -5.12064
          CHANNELS 3 Zrotation Xrotation Yrotation
          End Site
          {
            OFFSET -1.1221 -3.69964 12.103
          }
        }
      }
    }
  }
  JOINT lButtock
  {
    OFFSET 8.77824 4.35084 1.2192
    CHANNELS 3 Zrotation Xrotation Yrotation
    JOINT lThigh
    {
      OFFSET 0 -1.70687 -2.19456
      CHANNELS 3 Zrotation Xrotation Yrotation
      JOINT lShin
      {
        OFFSET 0 -36.8199 0.73152
        CHANNELS 3 Zrotation Xrotation Yrotation
        JOINT lFoot
        {
          OFFSET -0.73152 -45.1104 -5.12064
          CHANNELS 3 Zrotation Xrotation Yrotation
          End Site
          {
            OFFSET 1.1221 -3.69964 12.103
          }
        }
      }
    }
  }
}
MOTION
Frames:	6
Frame Time:	0.00833333
-20.2327 63.6622 -105.675 11.7816 6.68411 -48.8285 1.82797 27.2264 -7.00761 2.37272 -4.34305 -1.82561 -4.37914 9.73948 -11.5359 19.4503 -40.4796 -17.1655 -0 0 0 -0 0 0 -4.40753e-013 -1.57624e-015 6.40138e-013 31.0765 7.59015 30.6446 -27.2786 -43.1677 89.8757 -0.0190828 -3.93893 -0.554524 4.10843e-010 -7.5263e-009 -4.77682e-009 7.15787e-010 -1.3008e-008 -8.2506e-009 4.10847e-010 -7.52631e-009 -4.77683e-009 7.73091 5.47488 0.417314 4.10842e-010 -7.5263e-009 -4.77682e-009 2.90554 0.965183 0.102902 4.10849e-010 -7.5263e-009 -4.77682e-009 10.2786 0.731801 0.0259123 4.10841e-010 -7.5263e-009 -4.77682e-009 2.22167 -0.733487 -0.20892 -4.40819e-013 -1.62892e-015 6.40017e-013 1.04028 -0.453545 -77.2553 28.4467 -35.9878 -76.9251 0.0331351 5.05115 -0.71222 -3.86372e-010 2.7524e-009 3.77293e-009 -6.5673e-010 4.78163e-009 6.50859e-009 -3.86376e-010 2.7524e-009 3.77294e-009 -7.73091 5.47488 -0.417314 -3.86373e-010 2.75239e-009 3.77293e-009 -2.90554 0.965183 -0.102902 -3.86376e-010 2.75239e-009 3.77293e-009 -10.2786 0.731801 -0.0259123 -3.86365e-010 2.7524e-009 3.77293e-009 -2.22167 -0.733487 0.20892 -2.03217e-016 0 -3.88251e-019 -61.0524 -66.4611 -56.7478 -173.881 78.466 174.797 -0.626144 10.89 26.1596 2.03217e-016 0 3.88251e-019 -66.3741 -60.4387 -71.7143 174.692 76.6174 -175.821 -1.83868 -13.6487 -4.98025 
-20.2364 64.6108 -105.671 11.0977 6.79457 -47.6053 1.91032 26.6276 -7.73902 2.75716 -3.95402 -2.02375 -4.65736 9.7323 -11.6408 19.7596 -39.4144 -17.3241 -0 0 0 -0 0 0 -3.66165e-013 2.67667e-013 6.91749e-013 34.4194 11.7549 27.688 -27.1891 -43.421 90.3862 -0.0107106 -2.99237 -0.420962 4.05604e-010 -6.86643e-009 -4.79349e-009 7.03611e-010 -1.18634e-008 -8.2792e-009 4.05606e-010 -6.86644e-009 -4.7935e-009 7.73091 5.47488 0.417314 4.05604e-010 -6.86644e-009 -4.79349e-009 2.90554 0.965183 0.102902 4.05612e-010 -6.86644e-009 -4.79349e-009 10.2786 0.731801 0.0259123 4.05599e-010 -6.86643e-009 -4.79348e-009 2.22167 -0.733487 -0.20892 -3.66269e-013 2.6766e-013 6.91563e-013 5.16788 3.60523 -80.4121 28.4377 -35.1171 -75.5313 0.0479616 5.82419 -0.822792 -8.76985e-010 1.59451e-009 3.72876e-009 -1.49947e-009 2.78954e-009 6.4328e-009 -8.76987e-010 1.5945e-009 3.72877e-009 -7.73091 5.47488 -0.417314 -8.76985e-010 1.5945e-009 3.72877e-009 -2.90554 0.965183 -0.102902 -8.76992e-010 1.5945e-009 3.72876e-009 -10.2786 0.731801 -0.0259123 -8.76979e-010 1.5945e-009 3.72876e-009 -2.22167 -0.733487 0.20892 -2.03217e-016 0 -3.88251e-019 -58.5148 -67.8003 -53.0636 -173.4 79.4572 174.3 -0.31085 10.2396 26.4661 2.03217e-016 0 3.88251e-019 -61.0394 -58.5572 -65.2029 174.794 76.471 -176.028 -1.57057 -13.4138 -4.15808 
-20.1908 65.5296 -105.652 10.5194 6.88763 -46.5289 1.8866 25.966 -8.40921 3.13382 -3.57753 -2.21333 -4.89658 9.72852 -11.7145 19.9833 -38.4165 -17.457 -0 0 0 -0 0 0 -2.77816e-013 5.06842e-013 7.07676e-013 38.2065 15.7744 24.4442 -27.1561 -43.5376 90.5888 -0.00490025 -2.07842 -0.29221 3.85181e-010 -5.68468e-009 -4.47748e-009 6.63969e-010 -9.81527e-009 -7.73291e-009 3.85181e-010 -5.68468e-009 -4.4775e-009 7.73091 5.47488 0.417314 3.85182e-010 -5.68469e-009 -4.47748e-009 2.90554 0.965183 0.102902 3.8519e-010 -5.68469e-009 -4.47748e-009 10.2786 0.731801 0.0259123 3.85174e-010 -5.68468e-009 -4.47748e-009 2.22167 -0.733487 -0.20892 -2.77952e-013 5.06885e-013 7.07418e-013 9.52189 4.88145 -84.183 28.3877 -34.0938 -73.9147 0.064962 6.84957 -0.968869 -1.26102e-009 3.95123e-010 3.35883e-009 -2.15906e-009 7.23831e-010 5.79452e-009 -1.26102e-009 3.95123e-010 3.35885e-009 -7.73091 5.47488 -0.417314 -1.26102e-009 3.95122e-010 3.35884e-009 -2.90554 0.965183 -0.102902 -1.26103e-009 3.95122e-010 3.35884e-009 -10.2786 0.731801 -0.0259123 -1.26101e-009 3.95122e-010 3.35883e-009 -2.22167 -0.733487 0.20892 -2.03217e-016 0 -3.88251e-019 -55.7089 -69.4037 -48.9156 -172.798 80.4647 173.673 0.332456 8.98858 26.2268 2.03217e-016 0 3.88251e-019 -56.0555 -56.2839 -59.1001 174.815 76.5651 -176.153 -1.32046 -13.1044 -3.39 
-20.0512 66.3134 -105.657 10.0652 6.9702 -45.6568 1.70078 25.2411 -9.03325 3.54492 -3.29095 -2.39167 -5.14762 9.76095 -11.7242 20.1664 -37.4681 -17.4647 -0 0 0 -0 0 0 -1.97104e-013 6.58338e-013 6.80887e-013 42.3226 19.4657 20.959 -27.195 -43.4706 90.4016 -0.00181251 -1.21555 -0.170861 3.90295e-010 -4.67197e-009 -4.08292e-009 6.70067e-010 -8.06203e-009 -7.05138e-009 3.90293e-010 -4.67197e-009 -4.08294e-009 7.73091 5.47488 0.417314 3.90296e-010 -4.67198e-009 -4.08292e-009 2.90554 0.965183 0.102902 3.90304e-010 -4.67198e-009 -4.08292e-009 10.2786 0.731801 0.0259123 3.90285e-010 -4.67198e-009 -4.08292e-009 2.22167 -0.733487 -0.20892 -1.97248e-013 6.58411e-013 6.80589e-013 13.5596 3.35349 -86.9414 28.3145 -33.0489 -72.1496 0.0848599 8.28143 -1.17213 -1.46844e-009 -4.55443e-010 2.92365e-009 -2.51601e-009 -7.4375e-010 5.04417e-009 -1.46844e-009 -4.55441e-010 2.92366e-009 -7.73091 5.47488 -0.417314 -1.46844e-009 -4.55442e-010 2.92365e-009 -2.90554 0.965183 -0.102902 -1.46845e-009 -4.55442e-010 2.92365e-009 -10.2786 0.731801 -0.0259123 -1.46844e-009 -4.55443e-010 2.92365e-009 -2.22167 -0.733487 0.20892 -2.03217e-016 0 -3.88251e-019 -52.5038 -71.2104 -44.3062 -171.966 81.5825 172.814 0.862641 7.90726 24.7612 2.03217e-016 0 3.88251e-019 -51.5179 -53.6873 -53.7363 174.677 77.1164 -176.103 -1.15918 -12.7018 -2.90853 
-20.0059 67.096 -105.668 9.77218 7.00195 -45.0123 1.23775 24.4643 -9.53243 3.99254 -3.13592 -2.54096 -5.43241 9.89096 -11.6891 20.3371 -36.6014 -17.3806 -0 0 0 -0 0 0 -1.112e-013 7.2508e-013 5.84632e-013 46.917 22.7014 16.898 -27.2709 -43.1849 89.9246 -0.000542407 -0.18896 -0.0266414 3.94317e-010 -3.82231e-009 -3.40927e-009 6.76081e-010 -6.59466e-009 -5.88888e-009 3.94315e-010 -3.82231e-009 -3.40929e-009 7.73091 5.47488 0.417314 3.94317e-010 -3.82232e-009 -3.40926e-009 2.90554 0.965183 0.102902 3.94323e-010 -3.82232e-009 -3.40927e-009 10.2786 0.731801 0.0259123 3.94306e-010 -3.82232e-009 -3.40926e-009 2.22167 -0.733487 -0.20892 -1.11315e-013 7.25153e-013 5.84338e-013 17.0572 0.446682 -89.3972 28.2104 -31.9076 -70.1339 0.121585 10.3393 -1.46688 -1.47688e-009 -1.07113e-009 2.37471e-009 -2.53236e-009 -1.80944e-009 4.09977e-009 -1.47687e-009 -1.07112e-009 2.37473e-009 -7.73091 5.47488 -0.417314 -1.47688e-009 -1.07113e-009 2.37472e-009 -2.90554 0.965183 -0.102902 -1.47688e-009 -1.07113e-009 2.37471e-009 -10.2786 0.731801 -0.0259123 -1.47687e-009 -1.07113e-009 2.37471e-009 -2.22167 -0.733487 0.20892 -2.03217e-016 0 -3.88251e-019 -48.7116 -73.3654 -39.0343 -170.977 82.5938 171.796 1.13599 7.06698 21.4074 2.03217e-016 0 3.88251e-019 -47.2865 -50.8552 -48.9596 174.368 78.0758 -175.864 -1.15198 -11.9684 -2.97642 
-19.9971 67.7932 -105.635 9.62096 6.9954 -44.5626 0.564296 23.6336 -9.92899 4.45569 -3.06412 -2.66837 -5.72144 10.0836 -11.6175 20.4591 -35.8124 -17.2402 -0 0 0 -0 0 0 -1.48702e-014 7.31698e-013 4.30953e-013 52.0015 25.4604 12.2192 -27.3769 -42.7062 89.178 -0.00301704 0.937937 0.131698 3.88023e-010 -2.83062e-009 -2.41043e-009 6.64749e-010 -4.88354e-009 -4.16524e-009 3.88022e-010 -2.83062e-009 -2.41044e-009 7.73091 5.47488 0.417314 3.88023e-010 -2.83063e-009 -2.41042e-009 2.90554 0.965183 0.102902 3.88027e-010 -2.83063e-009 -2.41042e-009 10.2786 0.731801 0.0259123 3.88012e-010 -2.83062e-009 -2.41041e-009 2.22167 -0.733487 -0.20892 -1.49302e-014 7.31755e-013 4.30686e-013 20.1 -0.781646 -93.4558 28.0189 -30.5628 -67.9195 0.192227 12.8806 -1.83846 -1.32491e-009 -1.58742e-009 1.61241e-009 -2.27387e-009 -2.70639e-009 2.78847e-009 -1.32491e-009 -1.58742e-009 1.61242e-009 -7.73091 5.47488 -0.417314 -1.32491e-009 -1.58742e-009 1.61242e-009 -2.90554 0.965183 -0.102902 -1.32491e-009 -1.58742e-009 1.61241e-009 -10.2786 0.731801 -0.0259123 -1.32491e-009 -1.58742e-009 1.61241e-009 -2.22167 -0.733487 0.20892 -2.03217e-016 0 -3.88251e-019 -43.4463 -75.8041 -32.2046 -169.759 83.528 170.546 1.25274 6.00815 16.709 2.03217e-016 0 3.88251e-019 -43.3343 -47.7509 -44.6162 173.854 79.3628 -175.411 -1.22861 -10.9936 -3.39977 
